HIERARCHY
ROOT joint_0
{
	OFFSET 0.000000 0.000000 0.000000
	CHANNELS 6 Xposition Yposition Zposition Zrotation Yrotation Xrotation 
	JOINT joint_1
	{
		OFFSET 7.683380 1.521202 101.454956
		CHANNELS 3 Zrotation Yrotation Xrotation
		JOINT joint_2
		{
			OFFSET -4.816528 0.859650 92.807007
			CHANNELS 3 Zrotation Yrotation Xrotation
			JOINT joint_3
			{
				OFFSET -7.237778 1.114670 92.543091
				CHANNELS 3 Zrotation Yrotation Xrotation
				JOINT joint_4
				{
					OFFSET 0.479660 2.971886 127.844971
					CHANNELS 3 Zrotation Yrotation Xrotation
					JOINT joint_5
					{
						OFFSET 15.211349 9.937172 76.390015
						CHANNELS 3 Zrotation Yrotation Xrotation
						End Site
						{
							OFFSET 0.000000 0.000000 0.000000
						}
					}
				}
				JOINT joint_6
				{
					OFFSET 2.887054 -26.053230 72.331909
					CHANNELS 3 Zrotation Yrotation Xrotation
					JOINT joint_7
					{
						OFFSET 10.229767 -132.540291 -13.979004
						CHANNELS 3 Zrotation Yrotation Xrotation
						JOINT joint_8
						{
							OFFSET 17.695633 -10.988861 -262.204956
							CHANNELS 3 Zrotation Yrotation Xrotation
							JOINT joint_9
							{
								OFFSET 11.003433 -0.031860 -255.909973
								CHANNELS 3 Zrotation Yrotation Xrotation
								End Site
								{
									OFFSET 0.000000 0.000000 0.000000
								}
							}
						}
					}
				}
				JOINT joint_10
				{
					OFFSET -2.092239 29.348854 71.062988
					CHANNELS 3 Zrotation Yrotation Xrotation
					JOINT joint_11
					{
						OFFSET -11.853149 131.935837 -17.877075
						CHANNELS 3 Zrotation Yrotation Xrotation
						JOINT joint_12
						{
							OFFSET 14.084503 10.700203 -262.437012
							CHANNELS 3 Zrotation Yrotation Xrotation
							JOINT joint_13
							{
								OFFSET 48.202347 13.087273 -251.229919
								CHANNELS 3 Zrotation Yrotation Xrotation
								End Site
								{
									OFFSET 0.000000 0.000000 0.000000
								}
							}
						}
					}
				}
			}
		}
	}
	JOINT joint_14
	{
		OFFSET 4.150818 -83.296913 -102.580017
		CHANNELS 3 Zrotation Yrotation Xrotation
		JOINT joint_15
		{
			OFFSET -36.423187 -7.342392 -449.858948
			CHANNELS 3 Zrotation Yrotation Xrotation
			JOINT joint_16
			{
				OFFSET -41.100235 -7.280350 -426.202026
				CHANNELS 3 Zrotation Yrotation Xrotation
				JOINT joint_17
				{
					OFFSET 175.972961 13.159744 -75.358000
					CHANNELS 3 Zrotation Yrotation Xrotation
					End Site
					{
						OFFSET 0.000000 0.000000 0.000000
					}
				}
			}
		}
	}
	JOINT joint_18
	{
		OFFSET -9.062592 83.477568 -102.093018
		CHANNELS 3 Zrotation Yrotation Xrotation
		JOINT joint_19
		{
			OFFSET -39.145699 -6.092751 -449.645996
			CHANNELS 3 Zrotation Yrotation Xrotation
			JOINT joint_20
			{
				OFFSET -32.926178 -7.016375 -426.911980
				CHANNELS 3 Zrotation Yrotation Xrotation
				JOINT joint_21
				{
					OFFSET 176.289299 16.780729 -73.883997
					CHANNELS 3 Zrotation Yrotation Xrotation
					End Site
					{
						OFFSET 0.000000 0.000000 0.000000
					}
				}
			}
		}
	}
}
MOTION
Frames: 10
Frame Time: 0.016667
235.173233 -78.131180 1076.052002 -2.853082 -1.308613 0.412448 -0.451850 3.436787 2.614708 -0.594353 -0.666996 -0.630040 -0.527169 0.718288 0.423785 -0.394448 0.457416 1.677085 0.000000 0.000000 0.000000 1.497365 -1.638900 0.471709 -0.002806 -1.726789 -2.714291 -0.056040 1.694779 -1.301866 0.000000 0.000000 0.000000 -1.887630 -1.600426 -0.814111 -0.180127 -1.246274 0.528418 -0.015782 8.087468 -3.292216 0.000000 0.000000 0.000000 0.227580 -0.671954 0.645283 0.228043 1.806531 0.113998 0.257705 -0.071803 0.115627 0.000000 0.000000 0.000000 0.951414 -1.436261 0.695622 0.962877 3.004528 -0.179200 0.964333 -0.061055 0.409310 0.000000 0.000000 0.000000 
235.273148 -78.037666 1076.031982 -2.849398 -1.305641 0.409837 -0.450332 3.432252 2.612011 -0.592681 -0.668261 -0.630013 -0.525607 0.719534 0.422861 -0.394669 0.467015 1.671794 0.000000 0.000000 0.000000 1.506113 -1.637405 0.476821 -0.003339 -1.725252 -2.721321 -0.055799 1.699095 -1.295964 0.000000 0.000000 0.000000 -1.888537 -1.601308 -0.824806 -0.180796 -1.246199 0.527964 -0.016517 8.089010 -3.295372 0.000000 0.000000 0.000000 0.225628 -0.673060 0.640272 0.225400 1.814120 0.115882 0.255495 -0.077010 0.115071 0.000000 0.000000 0.000000 0.952055 -1.434564 0.694727 0.963585 3.005981 -0.180629 0.964977 -0.064574 0.409917 0.000000 0.000000 0.000000 
235.373062 -77.944153 1076.014038 -2.844690 -1.302108 0.406742 -0.448444 3.427304 2.608853 -0.590600 -0.668740 -0.629648 -0.523599 0.720898 0.422635 -0.394990 0.476885 1.666817 0.000000 0.000000 0.000000 1.513609 -1.636157 0.482197 -0.003728 -1.724208 -2.729356 -0.055661 1.706263 -1.292666 0.000000 0.000000 0.000000 -1.889679 -1.601388 -0.837267 -0.181885 -1.245239 0.526944 -0.017848 8.088486 -3.300517 0.000000 0.000000 0.000000 0.223381 -0.673950 0.635617 0.222505 1.820085 0.117943 0.253028 -0.081417 0.114347 0.000000 0.000000 0.000000 0.952414 -1.433830 0.693802 0.963867 3.007656 -0.180687 0.965301 -0.066295 0.410219 0.000000 0.000000 0.000000 
235.469818 -77.850510 1075.995972 -2.838553 -1.298663 0.403175 -0.446358 3.424168 2.606108 -0.588382 -0.669411 -0.630415 -0.521264 0.721209 0.423576 -0.395798 0.489301 1.662595 0.000000 0.000000 0.000000 1.520221 -1.634795 0.487466 -0.004052 -1.723220 -2.738398 -0.055580 1.715539 -1.290810 0.000000 0.000000 0.000000 -1.890428 -1.600837 -0.850935 -0.183321 -1.243704 0.525206 -0.019622 8.086983 -3.307256 0.000000 0.000000 0.000000 0.220555 -0.673959 0.631107 0.219038 1.824280 0.120629 0.250036 -0.084886 0.113327 0.000000 0.000000 0.000000 0.952765 -1.433065 0.692930 0.964067 3.008661 -0.179701 0.965608 -0.066917 0.410410 0.000000 0.000000 0.000000 
235.569199 -77.762360 1075.980957 -2.831327 -1.292661 0.399210 -0.443982 3.416060 2.601596 -0.585757 -0.668051 -0.630262 -0.518679 0.721063 0.423064 -0.396676 0.500977 1.659235 0.000000 0.000000 0.000000 1.525949 -1.632570 0.493912 -0.004249 -1.721440 -2.745803 -0.055576 1.725054 -1.290864 0.000000 0.000000 0.000000 -1.893268 -1.599116 -0.864114 -0.184591 -1.240720 0.523699 -0.021239 8.085354 -3.312921 0.000000 0.000000 0.000000 0.217434 -0.676789 0.627452 0.215302 1.828925 0.123092 0.246773 -0.088389 0.112194 0.000000 0.000000 0.000000 0.952750 -1.436220 0.693650 0.964067 3.011742 -0.180120 0.965640 -0.066760 0.410411 0.000000 0.000000 0.000000 
235.675919 -77.688736 1075.967041 -2.821082 -1.282616 0.395427 -0.441494 3.400409 2.591038 -0.582566 -0.665025 -0.627792 -0.515746 0.718220 0.421441 -0.398455 0.514892 1.659014 0.000000 0.000000 0.000000 1.529424 -1.627567 0.500216 -0.004150 -1.716671 -2.747113 -0.055670 1.734067 -1.293363 0.000000 0.000000 0.000000 -1.901703 -1.594469 -0.873190 -0.185421 -1.234541 0.520175 -0.022213 8.085438 -3.315849 0.000000 0.000000 0.000000 0.213135 -0.684395 0.624903 0.210401 1.835894 0.124982 0.242387 -0.093772 0.110720 0.000000 0.000000 0.000000 0.951454 -1.445685 0.697071 0.963186 3.018903 -0.184241 0.964613 -0.067700 0.410072 0.000000 0.000000 0.000000 
235.788315 -77.623878 1075.956055 -2.808109 -1.269227 0.391195 -0.439184 3.378122 2.577503 -0.579361 -0.659364 -0.624259 -0.512916 0.712689 0.418594 -0.400512 0.528903 1.660186 0.000000 0.000000 0.000000 1.531552 -1.620467 0.507242 -0.003858 -1.709762 -2.745006 -0.055849 1.743452 -1.297990 0.000000 0.000000 0.000000 -1.912974 -1.587402 -0.880382 -0.185945 -1.225752 0.515908 -0.022794 8.086768 -3.317075 0.000000 0.000000 0.000000 0.207808 -0.695818 0.623516 0.204485 1.844294 0.126703 0.237037 -0.099773 0.108881 0.000000 0.000000 0.000000 0.949328 -1.460585 0.702668 0.961712 3.029518 -0.190458 0.962906 -0.068503 0.409435 0.000000 0.000000 0.000000 
235.900848 -77.563148 1075.943970 -2.795438 -1.254818 0.387185 -0.436626 3.355870 2.562050 -0.575690 -0.655779 -0.618926 -0.509870 0.709396 0.414995 -0.402185 0.540337 1.661131 0.000000 0.000000 0.000000 1.534458 -1.613796 0.513210 -0.003604 -1.703050 -2.742085 -0.055972 1.751358 -1.301245 0.000000 0.000000 0.000000 -1.924666 -1.580684 -0.887834 -0.186424 -1.217162 0.512365 -0.023354 8.087781 -3.317947 0.000000 0.000000 0.000000 0.202633 -0.708142 0.621855 0.198647 1.852318 0.128951 0.231808 -0.106136 0.107120 0.000000 0.000000 0.000000 0.947562 -1.476414 0.708829 0.960714 3.039789 -0.197579 0.961587 -0.068920 0.408924 0.000000 0.000000 0.000000 
236.012558 -77.499535 1075.930054 -2.782804 -1.240504 0.383466 -0.435015 3.335709 2.549325 -0.573273 -0.652154 -0.616359 -0.507759 0.705688 0.412646 -0.403181 0.549433 1.660199 0.000000 0.000000 0.000000 1.539770 -1.608253 0.517753 -0.003682 -1.697236 -2.741388 -0.055892 1.756839 -1.299468 0.000000 0.000000 0.000000 -1.932002 -1.574354 -0.898931 -0.187056 -1.208904 0.512624 -0.024438 8.086048 -3.320263 0.000000 0.000000 0.000000 0.198145 -0.719311 0.618589 0.193265 1.858309 0.133149 0.227171 -0.112458 0.105610 0.000000 0.000000 0.000000 0.946073 -1.491094 0.714057 0.959862 3.048030 -0.203595 0.960464 -0.069141 0.408477 0.000000 0.000000 0.000000 
236.125778 -77.437561 1075.915039 -2.770155 -1.225047 0.379997 -0.434431 3.314978 2.535471 -0.571764 -0.648721 -0.612508 -0.506665 0.702195 0.410247 -0.403701 0.557178 1.657768 0.000000 0.000000 0.000000 1.549687 -1.602967 0.520530 -0.004021 -1.691088 -2.741469 -0.055659 1.760067 -1.293879 0.000000 0.000000 0.000000 -1.935035 -1.567805 -0.912298 -0.187702 -1.200611 0.515041 -0.025718 8.082512 -3.322559 0.000000 0.000000 0.000000 0.194114 -0.731029 0.614356 0.188156 1.863029 0.138786 0.222909 -0.118322 0.104226 0.000000 0.000000 0.000000 0.944783 -1.506543 0.719296 0.959231 3.055514 -0.209853 0.959522 -0.068850 0.408056 0.000000 0.000000 0.000000 
